<?xml version="1.0" encoding="UTF-8"?>
<svg width="120px" height="120px" viewBox="0 0 120 120" version="1.1" xmlns="http://www.w3.org/2000/svg" xmlns:xlink="http://www.w3.org/1999/xlink">
    <!-- Generator: Sketch 63.1 (92452) - https://sketch.com -->
    <title>logo</title>
    <desc>Created with Sketch.</desc>
    <g id="logo" stroke="none" stroke-width="1" fill="none" fill-rule="evenodd">
        <g id="server" transform="translate(8.000000, 4.000000)">
            <polygon id="Rectangle" fill="#2E2E2E" points="3.0218883e-14 6.12115479 52 0 52 112 4.61852778e-14 106"></polygon>
            <polygon id="Rectangle-Copy" fill="#3E3E3E" transform="translate(78.000000, 56.000000) scale(-1, 1) translate(-78.000000, -56.000000) " points="52 6.12115479 104 0 104 112 52 106"></polygon>
        </g>
        <g transform="translate(34.000000, 23.000000)" id="Combined-Shape">
            <path d="M42.4666667,55.8470588 C47.7317813,55.8470588 52,60.1345907 52,65.4235294 C52,70.7124681 47.7317813,75 42.4666667,75 C37.2015521,75 32.9333333,70.7124681 32.9333333,65.4235294 C32.9333333,60.1345907 37.2015521,55.8470588 42.4666667,55.8470588 Z M9.53333333,23.6352941 C14.7984479,23.6352941 19.0666667,27.922826 19.0666667,33.2117647 C19.0666667,38.5007034 14.7984479,42.7882353 9.53333333,42.7882353 C4.26821872,42.7882353 0,38.5007034 0,33.2117647 C0,27.922826 4.26821872,23.6352941 9.53333333,23.6352941 Z M9.53333333,1 C14.7984479,1 19.0666667,5.28753193 19.0666667,10.5764706 C19.0666667,15.8654093 14.7984479,20.1529412 9.53333333,20.1529412 C4.26821872,20.1529412 0,15.8654093 0,10.5764706 C0,5.28753193 4.26821872,1 9.53333333,1 Z" fill="#8F5EA1"></path>
            <path d="M5.86136482,48.7460972 C5.88459799,48.7681755 5.90735779,48.7907466 5.92962873,48.8137951 L18.2432897,61.5573976 L5.92254168,74.3083346 C5.05735005,75.2037351 3.63010813,75.2282242 2.73470763,74.3630326 L2.67347398,74.3015424 L2.67347398,74.3015424 C1.76830023,73.3568917 1.77141739,71.8657912 2.68053281,70.9249333 L11.7320282,61.5573976 L2.68977858,52.2233028 C1.77476795,51.2787596 1.76757518,49.7806361 2.67347398,48.8273503 C3.5313483,47.9246012 4.95861565,47.8882229 5.86136482,48.7460972 Z M42.5450489,0 C47.7668742,-9.59233744e-16 52,4.23312579 52,9.45495108 L52,40.4143331 C52,45.6361583 47.7668742,49.8692841 42.5450489,49.8692841 C37.3232236,49.8692841 33.0900978,45.6361583 33.0900978,40.4143331 L33.0900978,9.45495108 C33.0900978,4.23312579 37.3232236,9.59233744e-16 42.5450489,0 Z" fill="#6D74C5"></path>
        </g>
    </g>
</svg>