<?xml version="1.0" encoding="UTF-8"?>
<svg width="250px" height="100px" viewBox="0 0 250 100" version="1.1" xmlns="http://www.w3.org/2000/svg" xmlns:xlink="http://www.w3.org/1999/xlink">
    <!-- Generator: Sketch 63.1 (92452) - https://sketch.com -->
    <title>md-color-light</title>
    <desc>Created with Sketch.</desc>
    <g id="md-color-light" stroke="none" stroke-width="1" fill="none" fill-rule="evenodd">
        <path d="M69,71 C75.0751322,71 80,75.9248678 80,82 C80,88.0751322 75.0751322,93 69,93 C62.9248678,93 58,88.0751322 58,82 C58,75.9248678 62.9248678,71 69,71 Z M31,34 C37.0751322,34 42,38.9248678 42,45 C42,51.0751322 37.0751322,56 31,56 C24.9248678,56 20,51.0751322 20,45 C20,38.9248678 24.9248678,34 31,34 Z M31,8 C37.0751322,8 42,12.9248678 42,19 C42,25.0751322 37.0751322,30 31,30 C24.9248678,30 20,25.0751322 20,19 C20,12.9248678 24.9248678,8 31,8 Z" id="Combined-Shape" fill="#5F3E6B"></path>
        <path d="M26.3540642,62.7468423 C26.3698733,62.762134 26.3854912,62.7776223 26.4009141,62.7933035 L40.7270508,77.359375 L26.3928091,91.9336872 C25.3683251,92.9753293 23.693399,92.9892387 22.651757,91.9647547 C22.6386853,91.9518984 22.6257477,91.9389066 22.6129462,91.9257812 C21.5651121,90.8514452 21.5686992,89.1364431 22.6210183,88.0664997 L33.1517734,77.359375 L22.6315913,66.690287 C21.5725311,65.6162366 21.564254,63.893258 22.6129462,62.809082 C23.6288404,61.7588138 25.303796,61.7309481 26.3540642,62.7468423 Z M69,7 C75.0751322,7 80,11.9248678 80,18 L80,53 C80,59.0751322 75.0751322,64 69,64 C62.9248678,64 58,59.0751322 58,53 L58,18 C58,11.9248678 62.9248678,7 69,7 Z" id="Combined-Shape" fill="#656BB1"></path>
        <path d="M128.192,93.384 C130.496,93.384 132.565333,92.776 134.4,91.56 C136.234667,90.344 137.664,88.712 138.688,86.664 L138.816,92.488 L139.328,93 L140.8,93 L141.248,92.488 L141.248,44.872 L140.8,44.36 L139.136,44.36 L138.624,44.872 L138.624,62.792 C137.301333,62.664 135.978667,62.5573333 134.656,62.472 C133.333333,62.3866667 132.010667,62.344 130.688,62.344 C125.312,62.344 121.386667,63.6666667 118.912,66.312 C116.437333,68.9573333 115.2,72.9466667 115.2,78.28 C115.2,80.456 115.434667,82.472 115.904,84.328 C116.373333,86.184 117.130667,87.784 118.176,89.128 C119.221333,90.472 120.565333,91.5173333 122.208,92.264 C123.850667,93.0106667 125.845333,93.384 128.192,93.384 Z M128.256,91.08 C126.336,91.08 124.714667,90.7386667 123.392,90.056 C122.069333,89.3733333 120.992,88.4453333 120.16,87.272 C119.328,86.0986667 118.730667,84.744 118.368,83.208 C118.005333,81.672 117.824,80.0293333 117.824,78.28 C117.824,73.928 118.848,70.568 120.896,68.2 C122.944,65.832 126.208,64.648 130.688,64.648 C131.84,64.648 133.173333,64.7013333 134.688,64.808 C136.202667,64.9146667 137.514667,65.1386667 138.624,65.48 L138.56,78.28 C138.56,79.8586667 138.357333,81.416 137.952,82.952 C137.546667,84.488 136.928,85.8533333 136.096,87.048 C135.264,88.2426667 134.197333,89.2133333 132.896,89.96 C131.594667,90.7066667 130.048,91.08 128.256,91.08 Z M158.235429,93.384 C160.667429,93.384 162.758095,92.7866667 164.507429,91.592 C166.256762,90.3973333 167.664762,88.7333333 168.731429,86.6 L168.859429,92.488 L169.371429,93 L170.779429,93 L171.291429,92.488 L171.291429,71.24 C171.291429,69.448 171.056762,67.9866667 170.587429,66.856 C170.118095,65.7253333 169.446095,64.8186667 168.571429,64.136 C167.696762,63.4533333 166.619429,62.984 165.339429,62.728 C164.059429,62.472 162.608762,62.344 160.987429,62.344 C160.219429,62.344 159.398095,62.3973333 158.523429,62.504 C157.648762,62.6106667 156.774095,62.7706667 155.899429,62.984 C155.024762,63.1973333 154.171429,63.4746667 153.339429,63.816 C152.507429,64.1573333 151.771429,64.5413333 151.131429,64.968 L150.939429,65.416 C150.939429,65.544 150.928762,65.736 150.907429,65.992 C150.886095,66.248 150.886095,66.5253333 150.907429,66.824 C150.928762,67.1226667 150.971429,67.3786667 151.035429,67.592 C151.099429,67.8053333 151.216762,67.912 151.387429,67.912 C151.472762,67.912 151.803429,67.7413333 152.379429,67.4 C152.955429,67.0586667 153.680762,66.6853333 154.555429,66.28 C155.430095,65.8746667 156.432762,65.5013333 157.563429,65.16 C158.694095,64.8186667 159.856762,64.648 161.051429,64.648 C163.398095,64.648 165.254095,65.1066667 166.619429,66.024 C167.984762,66.9413333 168.667429,68.68 168.667429,71.24 L168.667429,74.696 C167.472762,74.6533333 166.150095,74.632 164.699429,74.632 C163.291429,74.632 161.862095,74.696 160.411429,74.824 C158.960762,74.952 157.552762,75.1973333 156.187429,75.56 C154.822095,75.9226667 153.606095,76.4666667 152.539429,77.192 C151.472762,77.9173333 150.619429,78.8453333 149.979429,79.976 C149.339429,81.1066667 149.019429,82.5253333 149.019429,84.232 C149.019429,86.9626667 149.872762,89.1706667 151.579429,90.856 C153.286095,92.5413333 155.504762,93.384 158.235429,93.384 Z M158.171429,91.08 C157.232762,91.08 156.379429,90.888 155.611429,90.504 C154.843429,90.12 154.182095,89.6186667 153.627429,89 C153.072762,88.3813333 152.646095,87.656 152.347429,86.824 C152.048762,85.992 151.899429,85.128 151.899429,84.232 C151.899429,82.6533333 152.251429,81.3733333 152.955429,80.392 C153.659429,79.4106667 154.555429,78.6426667 155.643429,78.088 C156.731429,77.5333333 157.947429,77.1706667 159.291429,77 C160.635429,76.8293333 161.968762,76.744 163.291429,76.744 L165.915429,76.744 L165.915429,76.744 C166.811429,76.744 167.707429,76.7866667 168.603429,76.872 L168.539429,76.872 C168.539429,77.4266667 168.528762,77.9813333 168.507429,78.536 C168.486095,79.0906667 168.454095,79.6453333 168.411429,80.2 C168.283429,81.608 167.963429,82.9626667 167.451429,84.264 C166.939429,85.5653333 166.256762,86.728 165.403429,87.752 C164.550095,88.776 163.515429,89.5866667 162.299429,90.184 C161.083429,90.7813333 159.707429,91.08 158.171429,91.08 Z M183.926857,93 L184.438857,92.488 L184.438857,73.352 C184.438857,72.1573333 184.673524,71.0586667 185.142857,70.056 C185.61219,69.0533333 186.241524,68.1893333 187.030857,67.464 C187.82019,66.7386667 188.737524,66.1626667 189.782857,65.736 C190.82819,65.3093333 191.926857,65.096 193.078857,65.096 C193.462857,65.096 193.910857,65.1066667 194.422857,65.128 C194.934857,65.1493333 195.40419,65.2453333 195.830857,65.416 L196.470857,64.968 L196.470857,63.048 L196.022857,62.536 C195.681524,62.4506667 195.34019,62.408 194.998857,62.408 L193.910857,62.408 L193.910857,62.408 C191.990857,62.408 190.209524,62.8346667 188.566857,63.688 C186.92419,64.5413333 185.526857,65.7573333 184.374857,67.336 L184.374857,63.176 L183.862857,62.664 L182.198857,62.664 L181.750857,63.176 L181.750857,92.488 L182.262857,93 L183.926857,93 Z M203.730286,93 L204.242286,92.488 L204.242286,76.872 L221.010286,93 L223.314286,93 C223.442286,93 223.548952,92.936 223.634286,92.808 C223.719619,92.68 223.783619,92.5733333 223.826286,92.488 C223.826286,92.36 223.762286,92.232 223.634286,92.104 C220.732952,89.2453333 217.799619,86.4293333 214.834286,83.656 C211.868952,80.8826667 208.892952,78.088 205.906286,75.272 L221.074286,63.048 L221.266286,62.664 C221.266286,62.3226667 221.074286,62.152 220.690286,62.152 L218.450286,62.152 C216.060952,64.1573333 213.692952,66.1413333 211.346286,68.104 C208.999619,70.0666667 206.610286,72.0506667 204.178286,74.056 L204.178286,44.808 L203.666286,44.296 L202.066286,44.296 L201.554286,44.808 L201.554286,92.488 L202.130286,93 L203.730286,93 Z" id="dark" fill="#282828" fill-rule="nonzero"></path>
        <path d="M117.304,34 C117.384,33.968 117.472,33.904 117.568,33.808 C117.664,33.712 117.728,33.624 117.76,33.544 C117.744,31.4 117.732,29.272 117.724,27.16 C117.716,25.048 117.712,22.92 117.712,20.776 C118.704,23 119.74,25.184 120.82,27.328 C121.9,29.472 122.968,31.64 124.024,33.832 L124.312,34 L124.936,34 L125.224,33.832 C126.344,31.592 127.46,29.372 128.572,27.172 C129.684,24.972 130.816,22.76 131.968,20.536 L131.896,33.544 C131.928,33.624 131.98,33.708 132.052,33.796 C132.124,33.884 132.2,33.952 132.28,34 L132.976,34 C133.072,33.968 133.168,33.908 133.264,33.82 C133.36,33.732 133.424,33.64 133.456,33.544 L133.456,17.536 L133.336,17.296 L133.048,17.056 L132.16,17.056 L131.872,17.224 L130.054,20.869 L130.054,20.869 L128.248,24.508 C127.048,26.932 125.84,29.36 124.624,31.792 L117.76,17.248 L117.472,17.056 L116.68,17.056 C116.584,17.088 116.488,17.152 116.392,17.248 C116.296,17.344 116.232,17.44 116.2,17.536 L116.2,33.544 L116.32,33.76 L116.608,34 L117.304,34 Z M139.850286,34.144 C140.570286,34.144 141.234286,33.992 141.842286,33.688 C142.450286,33.384 142.970286,32.944 143.402286,32.368 L143.426286,33.544 C143.458286,33.624 143.498286,33.692 143.546286,33.748 C143.594286,33.804 143.642286,33.856 143.690286,33.904 L143.882286,34 L144.386286,34 C144.482286,33.968 144.578286,33.908 144.674286,33.82 C144.770286,33.732 144.834286,33.64 144.866286,33.544 L144.866286,25.84 C144.866286,25.152 144.778286,24.58 144.602286,24.124 C144.426286,23.668 144.166286,23.308 143.822286,23.044 C143.478286,22.78 143.058286,22.596 142.562286,22.492 C142.066286,22.388 141.498286,22.336 140.858286,22.336 C140.554286,22.336 140.186286,22.388 139.754286,22.492 C139.322286,22.596 138.906286,22.716 138.506286,22.852 C138.106286,22.988 137.766286,23.108 137.486286,23.212 C137.206286,23.316 137.066286,23.368 137.066286,23.368 L136.922286,23.656 L136.922286,24.016 C136.922286,24.176 136.942286,24.364 136.982286,24.58 C137.022286,24.796 137.154286,24.904 137.378286,24.904 C137.426286,24.904 137.566286,24.844 137.798286,24.724 C138.030286,24.604 138.310286,24.468 138.638286,24.316 C138.966286,24.164 139.326286,24.028 139.718286,23.908 C140.110286,23.788 140.498286,23.728 140.882286,23.728 C141.650286,23.728 142.254286,23.872 142.694286,24.16 C143.134286,24.448 143.354286,25.008 143.354286,25.84 L143.354286,26.8 C142.890286,26.8 142.394286,26.804 141.866286,26.812 C141.338286,26.82 140.810286,26.852 140.282286,26.908 C139.754286,26.964 139.246286,27.064 138.758286,27.208 C138.270286,27.352 137.838286,27.564 137.462286,27.844 C137.086286,28.124 136.786286,28.48 136.562286,28.912 C136.338286,29.344 136.226286,29.888 136.226286,30.544 C136.226286,31.072 136.314286,31.56 136.490286,32.008 C136.666286,32.456 136.918286,32.836 137.246286,33.148 C137.574286,33.46 137.958286,33.704 138.398286,33.88 C138.838286,34.056 139.322286,34.144 139.850286,34.144 Z M139.826286,32.752 C139.522286,32.752 139.250286,32.688 139.010286,32.56 C138.770286,32.432 138.562286,32.268 138.386286,32.068 C138.210286,31.868 138.074286,31.636 137.978286,31.372 C137.882286,31.108 137.834286,30.832 137.834286,30.544 C137.834286,30.112 137.914286,29.752 138.074286,29.464 C138.234286,29.176 138.450286,28.94 138.722286,28.756 C138.994286,28.572 139.298286,28.432 139.634286,28.336 C139.970286,28.24 140.322286,28.176 140.690286,28.144 C140.850286,28.128 141.022286,28.124 141.206286,28.132 C141.390286,28.14 141.546286,28.128 141.674286,28.096 C141.962286,28.016 142.254286,27.996 142.550286,28.036 C142.846286,28.076 143.138286,28.056 143.426286,27.976 L143.306286,28.216 C143.306286,28.776 143.250286,29.324 143.138286,29.86 C143.026286,30.396 142.838286,30.88 142.574286,31.312 C142.310286,31.744 141.954286,32.092 141.506286,32.356 C141.058286,32.62 140.498286,32.752 139.826286,32.752 Z M152.508571,34.144 C153.212571,34.144 153.872571,33.984 154.488571,33.664 C155.104571,33.344 155.628571,32.912 156.060571,32.368 L156.084571,33.544 C156.116571,33.624 156.156571,33.692 156.204571,33.748 C156.252571,33.804 156.300571,33.856 156.348571,33.904 L156.540571,34 L157.068571,34 C157.148571,33.968 157.232571,33.916 157.320571,33.844 C157.408571,33.772 157.476571,33.704 157.524571,33.64 L157.524571,16.264 C157.492571,16.184 157.452571,16.116 157.404571,16.06 C157.356571,16.004 157.308571,15.952 157.260571,15.904 L157.068571,15.808 L156.468571,15.808 C156.388571,15.84 156.300571,15.904 156.204571,16 C156.108571,16.096 156.044571,16.184 156.012571,16.264 L156.012571,22.456 C155.580571,22.424 155.148571,22.396 154.716571,22.372 C154.284571,22.348 153.852571,22.336 153.420571,22.336 C151.388571,22.336 149.896571,22.844 148.944571,23.86 C147.992571,24.876 147.516571,26.384 147.516571,28.384 C147.516571,29.216 147.608571,29.984 147.792571,30.688 C147.976571,31.392 148.268571,32 148.668571,32.512 C149.068571,33.024 149.584571,33.424 150.216571,33.712 C150.848571,34 151.612571,34.144 152.508571,34.144 Z M152.532571,32.752 C151.876571,32.752 151.324571,32.632 150.876571,32.392 C150.428571,32.152 150.068571,31.832 149.796571,31.432 C149.524571,31.032 149.328571,30.568 149.208571,30.04 C149.088571,29.512 149.028571,28.96 149.028571,28.384 C149.028571,26.912 149.376571,25.768 150.072571,24.952 C150.768571,24.136 151.884571,23.728 153.420571,23.728 C153.852571,23.728 154.288571,23.74 154.728571,23.764 C155.168571,23.788 155.596571,23.848 156.012571,23.944 C156.012571,24.376 156.028571,24.896 156.060571,25.504 C156.092571,26.112 156.100571,26.74 156.084571,27.388 C156.068571,28.036 156.008571,28.68 155.904571,29.32 C155.800571,29.96 155.620571,30.536 155.364571,31.048 C155.108571,31.56 154.752571,31.972 154.296571,32.284 C153.840571,32.596 153.252571,32.752 152.532571,32.752 Z M165.502857,34.144 C166.110857,34.144 166.758857,34.064 167.446857,33.904 C168.134857,33.744 168.742857,33.504 169.270857,33.184 L169.414857,32.92 L169.414857,32.56 C169.414857,32.4 169.394857,32.216 169.354857,32.008 C169.314857,31.8 169.182857,31.696 168.958857,31.696 C168.910857,31.696 168.770857,31.752 168.538857,31.864 C168.306857,31.976 168.026857,32.096 167.698857,32.224 C167.370857,32.352 167.014857,32.472 166.630857,32.584 C166.246857,32.696 165.870857,32.752 165.502857,32.752 C164.846857,32.752 164.286857,32.644 163.822857,32.428 C163.358857,32.212 162.978857,31.912 162.682857,31.528 C162.386857,31.144 162.158857,30.696 161.998857,30.184 C161.838857,29.672 161.750857,29.12 161.734857,28.528 C163.030857,28.528 164.322857,28.508 165.610857,28.468 C166.898857,28.428 168.190857,28.384 169.486857,28.336 C169.550857,28.272 169.618857,28.2 169.690857,28.12 C169.762857,28.04 169.814857,27.96 169.846857,27.88 C169.846857,27.144 169.774857,26.44 169.630857,25.768 C169.486857,25.096 169.246857,24.5 168.910857,23.98 C168.574857,23.46 168.122857,23.048 167.554857,22.744 C166.986857,22.44 166.278857,22.288 165.430857,22.288 C164.582857,22.288 163.830857,22.424 163.174857,22.696 C162.518857,22.968 161.970857,23.348 161.530857,23.836 C161.090857,24.324 160.758857,24.912 160.534857,25.6 C160.310857,26.288 160.198857,27.04 160.198857,27.856 C160.198857,28.768 160.286857,29.608 160.462857,30.376 C160.638857,31.144 160.930857,31.808 161.338857,32.368 C161.746857,32.928 162.290857,33.364 162.970857,33.676 C163.650857,33.988 164.494857,34.144 165.502857,34.144 Z M162.478857,27.112 L161.734857,27.112 C161.814857,26.072 162.190857,25.24 162.862857,24.616 C163.534857,23.992 164.390857,23.68 165.430857,23.68 C165.894857,23.68 166.298857,23.772 166.642857,23.956 C166.986857,24.14 167.274857,24.384 167.506857,24.688 C167.738857,24.992 167.918857,25.34 168.046857,25.732 C168.174857,26.124 168.254857,26.528 168.286857,26.944 C167.326857,27.024 166.362857,27.072 165.394857,27.088 C164.426857,27.104 163.454857,27.112 162.478857,27.112 Z M183.571429,34 L183.907429,33.808 C184.248762,32.8373333 184.588317,31.872 184.926095,30.912 L185.431429,29.476 C185.935429,28.044 186.443429,26.6 186.955429,25.144 L190.219429,33.808 L190.531429,34 L191.179429,34 C191.259429,33.968 191.343429,33.92 191.431429,33.856 C191.519429,33.792 191.595429,33.728 191.659429,33.664 C191.723429,33.392 191.843429,32.952 192.019429,32.344 C192.195429,31.736 192.395429,31.056 192.619429,30.304 C192.843429,29.552 193.079429,28.764 193.327429,27.94 C193.575429,27.116 193.799429,26.348 193.999429,25.636 C194.199429,24.924 194.363429,24.316 194.491429,23.812 C194.619429,23.308 194.683429,22.984 194.683429,22.84 C194.683429,22.744 194.627429,22.656 194.515429,22.576 C194.403429,22.496 194.307429,22.456 194.227429,22.456 L193.723429,22.456 C193.643429,22.472 193.555429,22.516 193.459429,22.588 C193.363429,22.66 193.291429,22.72 193.243429,22.768 C192.827429,24.192 192.423429,25.612 192.031429,27.028 C191.639429,28.444 191.227429,29.864 190.795429,31.288 L187.555429,22.624 L187.243429,22.456 L186.691429,22.456 L186.379429,22.624 C186.048762,23.5733333 185.716317,24.5173333 185.382095,25.456 L184.879429,26.86 C184.375429,28.26 183.875429,29.672 183.379429,31.096 L181.363429,22.768 L181.099429,22.528 L180.907429,22.456 C180.843429,22.456 180.783429,22.452 180.727429,22.444 C180.671429,22.436 180.611429,22.432 180.547429,22.432 C180.371429,22.432 180.187429,22.472 179.995429,22.552 C179.803429,22.632 179.739429,22.792 179.803429,23.032 L182.371429,33.664 C182.419429,33.728 182.483429,33.792 182.563429,33.856 C182.643429,33.92 182.723429,33.968 182.803429,34 L183.571429,34 Z M198.701714,20.344 L198.893714,20.272 C199.005714,20.208 199.093714,20.088 199.157714,19.912 L199.157714,19 C199.125714,18.904 199.061714,18.812 198.965714,18.724 C198.869714,18.636 198.773714,18.576 198.677714,18.544 L197.765714,18.544 L197.573714,18.64 C197.525714,18.688 197.477714,18.74 197.429714,18.796 C197.381714,18.852 197.341714,18.92 197.309714,19 L197.309714,19.912 L197.405714,20.104 L197.597714,20.272 L197.789714,20.344 L198.701714,20.344 Z M198.557714,34 C198.637714,33.968 198.717714,33.916 198.797714,33.844 C198.877714,33.772 198.941714,33.704 198.989714,33.64 L198.989714,22.912 C198.941714,22.768 198.845714,22.64 198.701714,22.528 L198.533714,22.456 L197.909714,22.456 L197.741714,22.528 C197.597714,22.64 197.501714,22.768 197.453714,22.912 L197.453714,33.544 L197.573714,33.76 L197.861714,34 L198.557714,34 Z M206.728,34.144 C207.176,34.144 207.648,34.084 208.144,33.964 C208.64,33.844 209.072,33.664 209.44,33.424 L209.584,33.16 L209.584,32.584 C209.6,32.44 209.58,32.296 209.524,32.152 C209.468,32.008 209.344,31.936 209.152,31.936 C209.088,31.936 208.972,31.98 208.804,32.068 C208.636,32.156 208.44,32.248 208.216,32.344 C207.992,32.44 207.748,32.532 207.484,32.62 C207.22,32.708 206.96,32.752 206.704,32.752 C206.384,32.752 206.12,32.68 205.912,32.536 C205.704,32.392 205.54,32.204 205.42,31.972 C205.3,31.74 205.22,31.488 205.18,31.216 C205.14,30.944 205.12,30.672 205.12,30.4 L205.12,24.232 L208.792,24.232 C208.872,24.2 208.96,24.136 209.056,24.04 C209.152,23.944 209.216,23.856 209.248,23.776 L209.248,23.248 C209.216,23.168 209.164,23.084 209.092,22.996 C209.02,22.908 208.944,22.84 208.864,22.792 L205.12,22.792 L205.12,19.792 L205,19.576 L204.712,19.336 L204.16,19.336 C204.08,19.368 203.996,19.42 203.908,19.492 C203.82,19.564 203.752,19.632 203.704,19.696 C203.688,20.208 203.68,20.728 203.68,21.256 C203.68,21.768 203.664,22.28 203.632,22.792 L202.288,22.792 C202.144,22.84 202.016,22.936 201.904,23.08 L201.832,23.248 L201.832,23.776 L201.928,23.992 L202.216,24.232 L203.632,24.232 L203.632,30.4 C203.632,30.96 203.676,31.468 203.764,31.924 C203.852,32.38 204.012,32.772 204.244,33.1 C204.476,33.428 204.792,33.684 205.192,33.868 C205.592,34.052 206.104,34.144 206.728,34.144 Z M213.146286,34 C213.242286,33.968 213.338286,33.908 213.434286,33.82 C213.530286,33.732 213.594286,33.64 213.626286,33.544 L213.626286,26.416 C213.626286,26 213.738286,25.628 213.962286,25.3 C214.186286,24.972 214.474286,24.692 214.826286,24.46 C215.178286,24.228 215.554286,24.048 215.954286,23.92 C216.354286,23.792 216.738286,23.728 217.106286,23.728 C217.970286,23.728 218.698286,23.952 219.290286,24.4 C219.882286,24.848 220.178286,25.536 220.178286,26.464 L220.178286,33.544 C220.210286,33.64 220.274286,33.732 220.370286,33.82 C220.466286,33.908 220.562286,33.968 220.658286,34 L221.258286,34 L221.450286,33.904 C221.498286,33.856 221.546286,33.804 221.594286,33.748 C221.642286,33.692 221.682286,33.624 221.714286,33.544 L221.714286,26.464 C221.714286,25.728 221.602286,25.1 221.378286,24.58 C221.154286,24.06 220.838286,23.632 220.430286,23.296 C220.022286,22.96 219.538286,22.716 218.978286,22.564 C218.418286,22.412 217.794286,22.336 217.106286,22.336 C216.466286,22.336 215.838286,22.444 215.222286,22.66 C214.606286,22.876 214.074286,23.216 213.626286,23.68 L213.626286,16.264 C213.594286,16.168 213.530286,16.076 213.434286,15.988 C213.338286,15.9 213.242286,15.84 213.146286,15.808 L212.546286,15.808 L212.354286,15.904 C212.306286,15.952 212.258286,16.004 212.210286,16.06 C212.162286,16.116 212.122286,16.184 212.090286,16.264 L212.090286,33.544 C212.122286,33.624 212.162286,33.692 212.210286,33.748 C212.258286,33.804 212.306286,33.856 212.354286,33.904 L212.546286,34 L213.146286,34 Z" id="Madewith" fill="#2D2D2D" fill-rule="nonzero"></path>
    </g>
</svg>