<?xml version="1.0" encoding="UTF-8"?>
<svg width="126px" height="24px" viewBox="0 0 126 24" version="1.1" xmlns="http://www.w3.org/2000/svg" xmlns:xlink="http://www.w3.org/1999/xlink">
    <!-- Generator: Sketch 63.1 (92452) - https://sketch.com -->
    <title>sm-color-dark</title>
    <desc>Created with Sketch.</desc>
    <g id="sm-color-dark" stroke="none" stroke-width="1" fill="none" fill-rule="evenodd">
        <g id="logo" transform="translate(2.000000, 4.000000)">
            <path d="M8.98333333,11.8588235 C10.0971076,11.8588235 11,12.7858575 11,13.9294118 C11,15.0729661 10.0971076,16 8.98333333,16 C7.86955909,16 6.96666667,15.0729661 6.96666667,13.9294118 C6.96666667,12.7858575 7.86955909,11.8588235 8.98333333,11.8588235 Z M2.01666667,4.89411765 C3.13044091,4.89411765 4.03333333,5.82115158 4.03333333,6.96470588 C4.03333333,8.10826019 3.13044091,9.03529412 2.01666667,9.03529412 C0.902892421,9.03529412 0,8.10826019 0,6.96470588 C0,5.82115158 0.902892421,4.89411765 2.01666667,4.89411765 Z M2.01666667,0 C3.13044091,0 4.03333333,0.92703393 4.03333333,2.07058824 C4.03333333,3.21414254 3.13044091,4.14117647 2.01666667,4.14117647 C0.902892421,4.14117647 0,3.21414254 0,2.07058824 C0,0.92703393 0.902892421,0 2.01666667,0 Z" id="Combined-Shape" fill="#8F5EA1"></path>
            <path d="M0.85901487,10.4084708 L0.863188659,10.4126099 L3.57261745,13.1311016 L0.861675712,15.8511112 C0.665345846,16.0480978 0.346499871,16.0486302 0.149513296,15.8523003 L0.146839992,15.8496158 C-0.0505729318,15.649878 -0.0499001733,15.3282918 0.148346722,15.1293818 L2.13996511,13.1311016 L0.150320278,11.1398941 C-0.0491849086,10.9402323 -0.0507372612,10.6171645 0.146839992,10.4155946 C0.341534474,10.2169657 0.660386028,10.2137763 0.85901487,10.4084708 Z M8.91965692,0 C10.0685987,-2.11057177e-16 11,0.931401321 11,2.08034308 L11,8.55751137 C11,9.70645312 10.0685987,10.6378544 8.91965692,10.6378544 C7.77071517,10.6378544 6.83931385,9.70645312 6.83931385,8.55751137 L6.83931385,2.08034308 C6.83931385,0.931401321 7.77071517,2.11057177e-16 8.91965692,0 Z" id="Combined-Shape" fill="#6D74C5"></path>
        </g>
        <path d="M20.36,18 L20.488,17.872 C20.4773333,16.2506667 20.4693333,14.632 20.464,13.016 C20.4586667,11.4 20.456,9.78133333 20.456,8.16 C21.192,9.81333333 21.9573333,11.448 22.752,13.064 C23.5466667,14.68 24.344,16.304 25.144,17.936 L25.24,18 L25.576,18 L25.688,17.936 C26.52,16.2826667 27.3493333,14.6373333 28.176,13 C29.0026667,11.3626667 29.832,9.71733333 30.664,8.064 L30.616,17.872 L30.76,18 L31.176,18 L31.304,17.872 L31.304,6.832 L31.16,6.704 L30.664,6.704 L30.552,6.768 L25.416,17.12 L20.536,6.784 L20.424,6.704 L19.928,6.704 L19.8,6.832 L19.8,17.872 L19.944,18 L20.36,18 Z M35.5508571,18.096 C36.1588571,18.096 36.6815238,17.9466667 37.1188571,17.648 C37.5561905,17.3493333 37.9081905,16.9333333 38.1748571,16.4 L38.2068571,17.872 L38.3348571,18 L38.6868571,18 L38.8148571,17.872 L38.8148571,12.56 C38.8148571,12.112 38.7561905,11.7466667 38.6388571,11.464 C38.5215238,11.1813333 38.3535238,10.9546667 38.1348571,10.784 C37.9161905,10.6133333 37.6468571,10.496 37.3268571,10.432 C37.0068571,10.368 36.6441905,10.336 36.2388571,10.336 C36.0468571,10.336 35.8415238,10.3493333 35.6228571,10.376 C35.4041905,10.4026667 35.1855238,10.4426667 34.9668571,10.496 C34.7481905,10.5493333 34.5348571,10.6186667 34.3268571,10.704 C34.1188571,10.7893333 33.9348571,10.8853333 33.7748571,10.992 L33.7268571,11.104 C33.7268571,11.136 33.7241905,11.184 33.7188571,11.248 C33.7135238,11.312 33.7135238,11.3813333 33.7188571,11.456 C33.7241905,11.5306667 33.7348571,11.5946667 33.7508571,11.648 C33.7668571,11.7013333 33.7961905,11.728 33.8388571,11.728 C33.8601905,11.728 33.9428571,11.6853333 34.0868571,11.6 C34.2308571,11.5146667 34.4121905,11.4213333 34.6308571,11.32 C34.8495238,11.2186667 35.1001905,11.1253333 35.3828571,11.04 C35.6655238,10.9546667 35.9561905,10.912 36.2548571,10.912 C36.8415238,10.912 37.3055238,11.0266667 37.6468571,11.256 C37.9881905,11.4853333 38.1588571,11.92 38.1588571,12.56 L38.1588571,13.424 C37.8601905,13.4133333 37.5295238,13.408 37.1668571,13.408 C36.8148571,13.408 36.4575238,13.424 36.0948571,13.456 C35.7321905,13.488 35.3801905,13.5493333 35.0388571,13.64 C34.6975238,13.7306667 34.3935238,13.8666667 34.1268571,14.048 C33.8601905,14.2293333 33.6468571,14.4613333 33.4868571,14.744 C33.3268571,15.0266667 33.2468571,15.3813333 33.2468571,15.808 C33.2468571,16.4906667 33.4601905,17.0426667 33.8868571,17.464 C34.3135238,17.8853333 34.8681905,18.096 35.5508571,18.096 Z M35.5348571,17.52 C35.3001905,17.52 35.0868571,17.472 34.8948571,17.376 C34.7028571,17.28 34.5375238,17.1546667 34.3988571,17 C34.2601905,16.8453333 34.1535238,16.664 34.0788571,16.456 C34.0041905,16.248 33.9668571,16.032 33.9668571,15.808 C33.9668571,15.4133333 34.0548571,15.0933333 34.2308571,14.848 C34.4068571,14.6026667 34.6308571,14.4106667 34.9028571,14.272 C35.1748571,14.1333333 35.4788571,14.0426667 35.8148571,14 C36.1508571,13.9573333 36.4841905,13.936 36.8148571,13.936 L37.4708571,13.936 L37.4708571,13.936 C37.6948571,13.936 37.9188571,13.9466667 38.1428571,13.968 L38.1268571,13.968 C38.1268571,14.1066667 38.1241905,14.2453333 38.1188571,14.384 C38.1135238,14.5226667 38.1055238,14.6613333 38.0948571,14.8 C38.0628571,15.152 37.9828571,15.4906667 37.8548571,15.816 C37.7268571,16.1413333 37.5561905,16.432 37.3428571,16.688 C37.1295238,16.944 36.8708571,17.1466667 36.5668571,17.296 C36.2628571,17.4453333 35.9188571,17.52 35.5348571,17.52 Z M44.0057143,18.096 C44.5817143,18.096 45.0990476,17.944 45.5577143,17.64 C46.016381,17.336 46.3737143,16.928 46.6297143,16.416 L46.6617143,17.872 L46.7897143,18 L47.1577143,18 L47.2697143,17.872 L47.2697143,5.968 L47.1577143,5.84 L46.7417143,5.84 L46.6137143,5.968 L46.6137143,10.448 C46.2830476,10.416 45.952381,10.3893333 45.6217143,10.368 C45.2910476,10.3466667 44.960381,10.336 44.6297143,10.336 C43.2857143,10.336 42.304381,10.6666667 41.6857143,11.328 C41.0670476,11.9893333 40.7577143,12.9866667 40.7577143,14.32 C40.7577143,14.864 40.816381,15.368 40.9337143,15.832 C41.0510476,16.296 41.240381,16.696 41.5017143,17.032 C41.7630476,17.368 42.0990476,17.6293333 42.5097143,17.816 C42.920381,18.0026667 43.4190476,18.096 44.0057143,18.096 Z M44.0217143,17.52 C43.5417143,17.52 43.136381,17.4346667 42.8057143,17.264 C42.4750476,17.0933333 42.2057143,16.8613333 41.9977143,16.568 C41.7897143,16.2746667 41.640381,15.936 41.5497143,15.552 C41.4590476,15.168 41.4137143,14.7573333 41.4137143,14.32 C41.4137143,13.232 41.6697143,12.392 42.1817143,11.8 C42.6937143,11.208 43.5097143,10.912 44.6297143,10.912 C44.9177143,10.912 45.2510476,10.9253333 45.6297143,10.952 C46.008381,10.9786667 46.336381,11.0346667 46.6137143,11.12 L46.5977143,14.32 C46.5977143,14.7146667 46.5470476,15.104 46.4457143,15.488 C46.344381,15.872 46.1897143,16.2133333 45.9817143,16.512 C45.7737143,16.8106667 45.5070476,17.0533333 45.1817143,17.24 C44.856381,17.4266667 44.4697143,17.52 44.0217143,17.52 Z M52.6845714,18.096 C52.8765714,18.096 53.0792381,18.0826667 53.2925714,18.056 C53.5059048,18.0293333 53.7192381,17.992 53.9325714,17.944 C54.1459048,17.896 54.3565714,17.8346667 54.5645714,17.76 C54.7725714,17.6853333 54.9565714,17.6 55.1165714,17.504 L55.1805714,17.392 C55.1805714,17.36 55.1832381,17.312 55.1885714,17.248 C55.1939048,17.184 55.1939048,17.12 55.1885714,17.056 C55.1832381,16.992 55.1725714,16.9333333 55.1565714,16.88 C55.1405714,16.8266667 55.1112381,16.8 55.0685714,16.8 C55.0472381,16.8 54.9645714,16.8373333 54.8205714,16.912 C54.6765714,16.9866667 54.4925714,17.0693333 54.2685714,17.16 C54.0445714,17.2506667 53.7965714,17.3333333 53.5245714,17.408 C53.2525714,17.4826667 52.9725714,17.52 52.6845714,17.52 C52.1832381,17.52 51.7565714,17.4346667 51.4045714,17.264 C51.0525714,17.0933333 50.7645714,16.8613333 50.5405714,16.568 C50.3165714,16.2746667 50.1512381,15.928 50.0445714,15.528 C49.9379048,15.128 49.8845714,14.6933333 49.8845714,14.224 C50.8019048,14.224 51.7139048,14.2106667 52.6205714,14.184 C53.5272381,14.1573333 54.4392381,14.128 55.3565714,14.096 L55.4845714,13.968 C55.4845714,13.488 55.4392381,13.0293333 55.3485714,12.592 C55.2579048,12.1546667 55.1059048,11.7653333 54.8925714,11.424 C54.6792381,11.0826667 54.3885714,10.8106667 54.0205714,10.608 C53.6525714,10.4053333 53.1912381,10.304 52.6365714,10.304 C52.0819048,10.304 51.5912381,10.3946667 51.1645714,10.576 C50.7379048,10.7573333 50.3805714,11.008 50.0925714,11.328 C49.8045714,11.648 49.5859048,12.032 49.4365714,12.48 C49.2872381,12.928 49.2125714,13.4186667 49.2125714,13.952 C49.2125714,14.5706667 49.2712381,15.1333333 49.3885714,15.64 C49.5059048,16.1466667 49.6979048,16.5813333 49.9645714,16.944 C50.2312381,17.3066667 50.5859048,17.5893333 51.0285714,17.792 C51.4712381,17.9946667 52.0232381,18.096 52.6845714,18.096 Z M50.3485714,13.632 L49.8845714,13.632 C49.8952381,13.2373333 49.9672381,12.8693333 50.1005714,12.528 C50.2339048,12.1866667 50.4205714,11.896 50.6605714,11.656 C50.9005714,11.416 51.1885714,11.2266667 51.5245714,11.088 C51.8605714,10.9493333 52.2312381,10.88 52.6365714,10.88 C52.9992381,10.88 53.3165714,10.9546667 53.5885714,11.104 C53.8605714,11.2533333 54.0845714,11.4533333 54.2605714,11.704 C54.4365714,11.9546667 54.5699048,12.2373333 54.6605714,12.552 C54.7512381,12.8666667 54.8019048,13.184 54.8125714,13.504 C54.0659048,13.5573333 53.3219048,13.592 52.5805714,13.608 C51.8392381,13.624 51.0952381,13.632 50.3485714,13.632 Z M64.3622857,18 L64.4902857,17.92 C64.863619,16.8533333 65.2369524,15.7893333 65.6102857,14.728 C65.983619,13.6666667 66.3622857,12.6026667 66.7462857,11.536 L69.1302857,17.92 L69.2582857,18 L69.6582857,18 L69.7862857,17.904 C69.8137143,17.8125714 69.8705306,17.6153469 69.9567347,17.3123265 L70.0022857,17.152 C70.1142857,16.7573333 70.247619,16.2906667 70.4022857,15.752 C70.5569524,15.2133333 70.7222857,14.64 70.8982857,14.032 C71.0742857,13.424 71.2342857,12.864 71.3782857,12.352 C71.5222857,11.84 71.6422857,11.4106667 71.7382857,11.064 C71.8342857,10.7173333 71.8822857,10.528 71.8822857,10.496 C71.8822857,10.4746667 71.8662857,10.456 71.8342857,10.44 C71.8022857,10.424 71.775619,10.416 71.7542857,10.416 L71.4022857,10.416 L71.2742857,10.512 L70.8102857,12.122 L70.8102857,12.122 L70.3462857,13.72 C70.0369524,14.7813333 69.727619,15.8506667 69.4182857,16.928 L67.0022857,10.496 L66.8902857,10.416 L66.6022857,10.416 L66.4902857,10.496 L65.9262857,12.092 L65.9262857,12.092 L65.3542857,13.68 C64.9702857,14.736 64.591619,15.7973333 64.2182857,16.864 L62.6982857,10.512 L62.5702857,10.416 C62.5382857,10.416 62.487619,10.4133333 62.4182857,10.408 C62.3489524,10.4026667 62.279619,10.4026667 62.2102857,10.408 C62.1409524,10.4133333 62.0822857,10.4266667 62.0342857,10.448 C61.9862857,10.4693333 61.9729524,10.512 61.9942857,10.576 L63.7702857,17.904 L63.8822857,18 L64.3622857,18 Z M74.5931429,8.592 L74.7051429,8.48 L74.7051429,7.856 L74.5771429,7.728 L73.9371429,7.728 L73.8251429,7.856 L73.8251429,8.48 L73.9531429,8.592 L74.5931429,8.592 Z M74.4811429,18 L74.5931429,17.872 L74.5931429,10.544 L74.4651429,10.416 L74.0491429,10.416 L73.9211429,10.544 L73.9211429,17.872 L74.0651429,18 L74.4811429,18 Z M79.272,18.096 C79.5386667,18.096 79.8346667,18.0586667 80.16,17.984 C80.4853333,17.9093333 80.7653333,17.7973333 81,17.648 L81.064,17.552 C81.064,17.52 81.0666667,17.472 81.072,17.408 C81.0773333,17.344 81.0773333,17.28 81.072,17.216 C81.0666667,17.152 81.056,17.0933333 81.04,17.04 C81.024,16.9866667 80.9946667,16.96 80.952,16.96 C80.9093333,16.96 80.8346667,16.9893333 80.728,17.048 C80.6213333,17.1066667 80.4933333,17.1706667 80.344,17.24 C80.1946667,17.3093333 80.0266667,17.3733333 79.84,17.432 C79.6533333,17.4906667 79.4586667,17.52 79.256,17.52 C79,17.52 78.7893333,17.4666667 78.624,17.36 C78.4586667,17.2533333 78.328,17.1146667 78.232,16.944 C78.136,16.7733333 78.0693333,16.5786667 78.032,16.36 C77.9946667,16.1413333 77.976,15.9253333 77.976,15.712 L77.976,11.264 L80.696,11.264 L80.824,11.136 L80.824,10.784 L80.68,10.656 L77.976,10.656 L77.976,8.4 L77.832,8.272 L77.512,8.272 L77.384,8.4 C77.3733333,8.77333333 77.3653333,9.14933333 77.36,9.528 C77.3546667,9.90666667 77.3413333,10.2826667 77.32,10.656 L76.216,10.656 L76.088,10.784 L76.088,11.136 L76.232,11.264 L77.336,11.264 L77.336,15.712 C77.336,16.064 77.3653333,16.3866667 77.424,16.68 C77.4826667,16.9733333 77.584,17.224 77.728,17.432 C77.872,17.64 78.0693333,17.8026667 78.32,17.92 C78.5706667,18.0373333 78.888,18.096 79.272,18.096 Z M83.4548571,18 L83.5828571,17.872 L83.5828571,12.96 C83.5828571,12.6506667 83.6681905,12.3706667 83.8388571,12.12 C84.0095238,11.8693333 84.2228571,11.6533333 84.4788571,11.472 C84.7348571,11.2906667 85.0148571,11.152 85.3188571,11.056 C85.6228571,10.96 85.9081905,10.912 86.1748571,10.912 C86.5055238,10.912 86.8121905,10.9546667 87.0948571,11.04 C87.3775238,11.1253333 87.6228571,11.256 87.8308571,11.432 C88.0388571,11.608 88.2015238,11.824 88.3188571,12.08 C88.4361905,12.336 88.4948571,12.64 88.4948571,12.992 L88.4948571,17.872 L88.6228571,18 L89.0388571,18 L89.1668571,17.872 L89.1668571,12.992 C89.1668571,12.5226667 89.0948571,12.12 88.9508571,11.784 C88.8068571,11.448 88.6015238,11.1733333 88.3348571,10.96 C88.0681905,10.7466667 87.7535238,10.5893333 87.3908571,10.488 C87.0281905,10.3866667 86.6228571,10.336 86.1748571,10.336 C85.6628571,10.336 85.1775238,10.44 84.7188571,10.648 C84.2601905,10.856 83.8815238,11.1786667 83.5828571,11.616 L83.5828571,5.968 L83.4548571,5.84 L83.0388571,5.84 L82.9108571,5.968 L82.9108571,17.872 L83.0388571,18 L83.4548571,18 Z M98.9085714,18.096 C99.4845714,18.096 100.001905,17.944 100.460571,17.64 C100.919238,17.336 101.276571,16.928 101.532571,16.416 L101.564571,17.872 L101.692571,18 L102.060571,18 L102.172571,17.872 L102.172571,5.968 L102.060571,5.84 L101.644571,5.84 L101.516571,5.968 L101.516571,10.448 C101.185905,10.416 100.855238,10.3893333 100.524571,10.368 C100.193905,10.3466667 99.8632381,10.336 99.5325714,10.336 C98.1885714,10.336 97.2072381,10.6666667 96.5885714,11.328 C95.9699048,11.9893333 95.6605714,12.9866667 95.6605714,14.32 C95.6605714,14.864 95.7192381,15.368 95.8365714,15.832 C95.9539048,16.296 96.1432381,16.696 96.4045714,17.032 C96.6659048,17.368 97.0019048,17.6293333 97.4125714,17.816 C97.8232381,18.0026667 98.3219048,18.096 98.9085714,18.096 Z M98.9245714,17.52 C98.4445714,17.52 98.0392381,17.4346667 97.7085714,17.264 C97.3779048,17.0933333 97.1085714,16.8613333 96.9005714,16.568 C96.6925714,16.2746667 96.5432381,15.936 96.4525714,15.552 C96.3619048,15.168 96.3165714,14.7573333 96.3165714,14.32 C96.3165714,13.232 96.5725714,12.392 97.0845714,11.8 C97.5965714,11.208 98.4125714,10.912 99.5325714,10.912 C99.8205714,10.912 100.153905,10.9253333 100.532571,10.952 C100.911238,10.9786667 101.239238,11.0346667 101.516571,11.12 L101.500571,14.32 C101.500571,14.7146667 101.449905,15.104 101.348571,15.488 C101.247238,15.872 101.092571,16.2133333 100.884571,16.512 C100.676571,16.8106667 100.409905,17.0533333 100.084571,17.24 C99.7592381,17.4266667 99.3725714,17.52 98.9245714,17.52 Z M106.419429,18.096 C107.027429,18.096 107.550095,17.9466667 107.987429,17.648 C108.424762,17.3493333 108.776762,16.9333333 109.043429,16.4 L109.075429,17.872 L109.203429,18 L109.555429,18 L109.683429,17.872 L109.683429,12.56 C109.683429,12.112 109.624762,11.7466667 109.507429,11.464 C109.390095,11.1813333 109.222095,10.9546667 109.003429,10.784 C108.784762,10.6133333 108.515429,10.496 108.195429,10.432 C107.875429,10.368 107.512762,10.336 107.107429,10.336 C106.915429,10.336 106.710095,10.3493333 106.491429,10.376 C106.272762,10.4026667 106.054095,10.4426667 105.835429,10.496 C105.616762,10.5493333 105.403429,10.6186667 105.195429,10.704 C104.987429,10.7893333 104.803429,10.8853333 104.643429,10.992 L104.595429,11.104 C104.595429,11.136 104.592762,11.184 104.587429,11.248 C104.582095,11.312 104.582095,11.3813333 104.587429,11.456 C104.592762,11.5306667 104.603429,11.5946667 104.619429,11.648 C104.635429,11.7013333 104.664762,11.728 104.707429,11.728 C104.728762,11.728 104.811429,11.6853333 104.955429,11.6 C105.099429,11.5146667 105.280762,11.4213333 105.499429,11.32 C105.718095,11.2186667 105.968762,11.1253333 106.251429,11.04 C106.534095,10.9546667 106.824762,10.912 107.123429,10.912 C107.710095,10.912 108.174095,11.0266667 108.515429,11.256 C108.856762,11.4853333 109.027429,11.92 109.027429,12.56 L109.027429,13.424 C108.728762,13.4133333 108.398095,13.408 108.035429,13.408 C107.683429,13.408 107.326095,13.424 106.963429,13.456 C106.600762,13.488 106.248762,13.5493333 105.907429,13.64 C105.566095,13.7306667 105.262095,13.8666667 104.995429,14.048 C104.728762,14.2293333 104.515429,14.4613333 104.355429,14.744 C104.195429,15.0266667 104.115429,15.3813333 104.115429,15.808 C104.115429,16.4906667 104.328762,17.0426667 104.755429,17.464 C105.182095,17.8853333 105.736762,18.096 106.419429,18.096 Z M106.403429,17.52 C106.168762,17.52 105.955429,17.472 105.763429,17.376 C105.571429,17.28 105.406095,17.1546667 105.267429,17 C105.128762,16.8453333 105.022095,16.664 104.947429,16.456 C104.872762,16.248 104.835429,16.032 104.835429,15.808 C104.835429,15.4133333 104.923429,15.0933333 105.099429,14.848 C105.275429,14.6026667 105.499429,14.4106667 105.771429,14.272 C106.043429,14.1333333 106.347429,14.0426667 106.683429,14 C107.019429,13.9573333 107.352762,13.936 107.683429,13.936 L108.339429,13.936 L108.339429,13.936 C108.563429,13.936 108.787429,13.9466667 109.011429,13.968 L108.995429,13.968 C108.995429,14.1066667 108.992762,14.2453333 108.987429,14.384 C108.982095,14.5226667 108.974095,14.6613333 108.963429,14.8 C108.931429,15.152 108.851429,15.4906667 108.723429,15.816 C108.595429,16.1413333 108.424762,16.432 108.211429,16.688 C107.998095,16.944 107.739429,17.1466667 107.435429,17.296 C107.131429,17.4453333 106.787429,17.52 106.403429,17.52 Z M112.842286,18 L112.970286,17.872 L112.970286,13.088 C112.970286,12.7893333 113.028952,12.5146667 113.146286,12.264 C113.263619,12.0133333 113.420952,11.7973333 113.618286,11.616 C113.815619,11.4346667 114.044952,11.2906667 114.306286,11.184 C114.567619,11.0773333 114.842286,11.024 115.130286,11.024 C115.226286,11.024 115.338286,11.0266667 115.466286,11.032 C115.594286,11.0373333 115.711619,11.0613333 115.818286,11.104 L115.978286,10.992 L115.978286,10.512 L115.866286,10.384 C115.780952,10.3626667 115.695619,10.352 115.610286,10.352 L115.338286,10.352 L115.338286,10.352 C114.858286,10.352 114.412952,10.4586667 114.002286,10.672 C113.591619,10.8853333 113.242286,11.1893333 112.954286,11.584 L112.954286,10.544 L112.826286,10.416 L112.410286,10.416 L112.298286,10.544 L112.298286,17.872 L112.426286,18 L112.842286,18 Z M117.793143,18 L117.921143,17.872 L117.921143,13.968 L122.113143,18 L122.689143,18 C122.721143,18 122.74781,17.984 122.769143,17.952 C122.790476,17.92 122.806476,17.8933333 122.817143,17.872 C122.817143,17.84 122.801143,17.808 122.769143,17.776 C122.04381,17.0613333 121.310476,16.3573333 120.569143,15.664 C119.82781,14.9706667 119.08381,14.272 118.337143,13.568 L122.129143,10.512 L122.177143,10.416 C122.177143,10.3306667 122.129143,10.288 122.033143,10.288 L121.473143,10.288 C120.87581,10.7893333 120.28381,11.2853333 119.697143,11.776 C119.110476,12.2666667 118.513143,12.7626667 117.905143,13.264 L117.905143,5.952 L117.777143,5.824 L117.377143,5.824 L117.249143,5.952 L117.249143,17.872 L117.393143,18 L117.793143,18 Z" id="Madewithdark" fill="#F8F8F8" fill-rule="nonzero"></path>
    </g>
</svg>